<?xml version="1.0" encoding="utf-8"?>
<!-- Generator: Adobe Illustrator 16.0.0, SVG Export Plug-In . SVG Version: 6.00 Build 0)  -->
<!DOCTYPE svg PUBLIC "-//W3C//DTD SVG 1.1//EN" "http://www.w3.org/Graphics/SVG/1.1/DTD/svg11.dtd">
<svg version="1.1" id="Layer_1" xmlns="http://www.w3.org/2000/svg" xmlns:xlink="http://www.w3.org/1999/xlink" x="0px" y="0px"
	 width="285.059px" height="96.201px" viewBox="0 0 285.059 96.201" enable-background="new 0 0 285.059 96.201"
	 xml:space="preserve">
<g>
	<g>
		<circle fill="#0732A7" cx="48.101" cy="48.101" r="48.101"/>
		<path fill="#0732A7" d="M80.648,16.092c0,0,1.563-6.583-1.255-9.443c-1.677-1.483-3.455,0.145-2.817,1.193
			C76.575,8.929,80.933,11.854,80.648,16.092z"/>
		<path fill="#FFFFFF" d="M80.078,16.663c0,0,1.563-6.583-1.256-9.443c-1.675-1.484-3.456,0.145-2.815,1.193
			C76.005,9.5,80.363,12.425,80.078,16.663z"/>
		<path fill="#FFFFFF" d="M75.923,15.977c0,0-1.674-6.873-6.253-8.969c-2.136-0.682-3.295,1.397-2.286,2.098
			C67.82,10.102,74.473,11.984,75.923,15.977z"/>
		<path fill="#FFFFFF" d="M84.232,32.781c0,0,2.023-14.154-12.998-16.754c-15.816-3.178-28.379,8.955-22.53,22.532
			c6.355,14.154,23.685,17.738,19.207,29.871c-4.952,13.422-35.064,24.23-51.374,2.707C12.866,66.562,7.204,57.655,6.07,45.87
			C4.922,60.002,8.069,75.811,28.266,87.665C53.684,100.64,80.203,85.833,82.5,71.75c1.824-13.889-7.597-18.284-11.122-21.375
			c-4.901-4.3-23.686-8.352-17.765-23.373c0,0,3.008-7.837,12.711-5.199c0,0-3.756,7.799,1.733,11.699
			c5.56,3.827,10.109,1.013,10.109,1.013s-1.732,9.819,4.333,10.398c0,0-2.738-3.775-0.866-5.922
			C83.945,36.102,84.232,32.781,84.232,32.781z"/>
		<circle fill="#0732A7" cx="73.763" cy="28.303" r="2.385"/>
		<path fill="#0732A7" d="M84.162,23.11c0,0,4.084-5.562,2.132-9.07c-1.216-1.879-3.179-0.585-3.258,0.458
			C82.744,15.544,85.57,19.105,84.162,23.11z"/>
		<path fill="#FFFFFF" d="M83.591,23.681c0,0,4.085-5.563,2.135-9.072c-1.218-1.878-3.182-0.584-3.259,0.458
			C82.174,16.115,85.001,19.674,83.591,23.681z"/>
		<path fill-rule="evenodd" clip-rule="evenodd" fill="#FFFFFF" d="M65.54,59.207c0,0.859-0.019,1.654,0.004,2.446
			c0.218,7.37-4.782,14.045-10.449,16.094c-6.009,2.175-11.892,1.837-17.537-1.296c-5.668-3.147-8.829-9.812-7.683-16.192
			c0.497-2.768,2.089-4.156,4.39-3.813c1.451,0.216,2.5,1.122,2.995,2.375c0.916,2.311,1.868,4.666,2.312,7.089
			c0.851,4.671,4.812,8.471,10.152,9.389c6.375,1.094,13.033-3.735,14.511-9.31C64.814,63.81,65.098,61.556,65.54,59.207z"/>
		<path fill-rule="evenodd" clip-rule="evenodd" fill="#F48723" d="M62.609,57.862c0.785,4.011,0.266,7.476-2.05,10.53
			c-1.784,2.353-4.158,3.896-7.084,4.49c-2.069,0.418-3.787-0.294-4.33-1.738c-0.51-1.365,0.23-2.881,2.145-3.876
			c1.217-0.632,2.549-1.137,3.889-1.43C60.303,64.716,61.726,63.295,62.609,57.862z"/>
		<path fill-rule="evenodd" clip-rule="evenodd" fill="#0732A7" d="M60.818,55.711c0.873,2.535,0.771,4.735-0.874,6.744
			c-1.117,1.362-3.691,1.789-5.136,0.807c-1.315-0.897-1.552-2.421-0.304-3.408c0.833-0.66,1.96-1.126,3.016-1.289
			C59.494,58.264,60.27,57.773,60.818,55.711z"/>
		<path fill="#FFFFFF" d="M12.745,37.569c0,0,5.095-2.02,5.51-6.875c0.342-4.322-2.485-5.15,0.251-8.87
			c1.048-1.423,5.339-6.739,3.072-8.162c-1.97-1.143-4.638,0.388-5.879,0.886c-0.598,0.257-1.991,0.946-2.08,1.169
			c-0.089,0.222,0.851,0.078,0.926,0.253c0.032,0.242-0.535,0.956-0.333,1.026c0.177,0.06,0.985-0.461,1.888-1.009
			c0.9-0.55,5.245-2.441,4.268,0.052c-0.739,1.886-2.679,3.065-4.342,4.479c-2.205,1.492-4.373,4.879-4.473,6.593
			c-0.099,1.714-0.708-3.133-1.579-2.614c-0.281,0.169,0.114,1.302-0.251,2.393c-0.766,2.297-2.185,6.294,0.265,9.495
			C10.884,36.664,12.745,37.569,12.745,37.569z"/>
		<path fill-rule="evenodd" clip-rule="evenodd" fill="#0732A7" d="M14.748,66.837c-5.612-7.485-7.662-14.472-8.09-22.702
			c-0.238-4.584,0.4-8.866,3.166-12.837c0.223-0.324,1.667-2.48,4.303-1.863c1.284,0.366,2.22,1.769,2.102,3.021
			c-0.572,2.725-1.449,5.402-2.385,8.034c-2.985,8.387-2.676,16.333,0.487,24.665C14.452,65.47,14.727,66.729,14.748,66.837z"/>
		<path fill-rule="evenodd" clip-rule="evenodd" fill="#FFFFFF" d="M14.262,65.592C9.791,59.253,7.666,52.116,7.268,44.45
			c-0.223-4.271,0.028-8.498,2.601-12.198c0.209-0.301,1.841-3.079,4.185-2.298c1.518,0.659,2.19,2.156,1.877,3.637
			c-0.536,2.539-1.35,5.033-2.224,7.485c-2.78,7.812-2.793,15.579,0.153,23.341C13.971,64.708,14.242,65.491,14.262,65.592z"/>
		<path fill-rule="evenodd" clip-rule="evenodd" fill="#F48723" d="M50.57,80.747c-1.879,0.169-3.758,0.48-5.636,0.484
			c-8.162,0.011-15.314-2.712-21.338-8.242c-3.187-2.924-4.949-6.782-6.652-10.646c-1.602-3.629-2.874-7.358-2.82-11.398
			c0.027-2.13,0.554-4.104,2.044-5.715c1.844-1.99,4.277-2.016,6.149-0.013c1.721,1.837,2.187,4.141,2.412,6.57
			c0.366,3.918,0.524,7.9,1.376,11.718c2.154,9.652,10.001,16.168,19.877,16.891c1.514,0.114,3.04,0.018,4.563,0.018
			C50.552,80.523,50.563,80.635,50.57,80.747z"/>
	</g>
	<g>
		<g>
			<path fill="#F48723" d="M106.602,53.448l-0.002-1.6c7.025-0.008,172.057-0.181,175.565,0.001l-0.083,1.598
				C278.615,53.267,108.322,53.447,106.602,53.448z"/>
		</g>
		<g>
			<g>
				<path fill="#FFFFFF" stroke="#FFFFFF" stroke-width="0.5" stroke-miterlimit="10" d="M112.303,47.215
					c-1.779-0.574-3.174-1.38-4.185-2.419s-1.518-2.242-1.518-3.61c0-0.764,0.267-1.407,0.8-1.927
					c0.534-0.52,1.183-0.779,1.949-0.779c0.765,0,1.408,0.26,1.927,0.779c0.519,0.52,0.779,1.163,0.779,1.927
					c0,1.559,0.595,2.852,1.785,3.877c1.189,1.025,2.672,1.538,4.449,1.538c1.122,0,2.155-0.205,3.097-0.614
					c0.944-0.411,1.695-0.965,2.257-1.662c0.56-0.697,0.841-1.484,0.841-2.359c0-1.039-0.343-1.94-1.025-2.706
					c-0.685-0.765-1.538-1.415-2.563-1.948c-1.026-0.534-2.386-1.142-4.082-1.826c-2.079-0.874-3.747-1.661-5.004-2.358
					c-1.257-0.696-2.332-1.605-3.22-2.727c-0.887-1.122-1.332-2.488-1.332-4.101s0.416-3.042,1.25-4.287
					c0.835-1.244,2.058-2.208,3.672-2.891c1.612-0.684,3.54-1.026,5.783-1.026c1.969,0,3.78,0.267,5.435,0.8
					c1.654,0.534,2.959,1.299,3.917,2.297c0.956,0.998,1.436,2.153,1.436,3.466c0,0.793-0.26,1.449-0.779,1.968
					c-0.521,0.521-1.164,0.779-1.928,0.779c-0.766,0-1.416-0.266-1.949-0.8c-0.532-0.533-0.799-1.182-0.799-1.947
					c0-1.422-0.535-2.619-1.601-3.589c-1.065-0.971-2.392-1.456-3.978-1.456c-1.778,0-3.187,0.458-4.225,1.374
					c-1.04,0.917-1.559,2.112-1.559,3.589c0,1.229,0.382,2.291,1.147,3.179c0.767,0.888,1.709,1.634,2.83,2.235
					c1.122,0.602,2.626,1.285,4.512,2.051c1.996,0.82,3.596,1.552,4.799,2.194c1.203,0.643,2.221,1.47,3.055,2.481
					s1.251,2.229,1.251,3.65c0,1.45-0.478,2.762-1.436,3.938c-0.956,1.175-2.289,2.099-3.998,2.77
					c-1.708,0.668-3.644,1.004-5.805,1.004C116.076,48.078,114.079,47.791,112.303,47.215z"/>
				<path fill="#FFFFFF" stroke="#FFFFFF" stroke-width="0.5" stroke-miterlimit="10" d="M133.756,46.404h0.305
					c0.383,0,0.648-0.162,0.797-0.491c0.145-0.328,0.218-0.954,0.218-1.88V27.871c0-0.949-0.073-1.581-0.218-1.898
					c-0.148-0.315-0.414-0.473-0.797-0.473h-0.305v-1.017l4.269-0.779h0.847v9.317c0.543-0.949,1.326-1.7,2.355-2.253
					c1.027-0.553,2.163-0.83,3.406-0.83c1.716,0,3.037,0.464,3.963,1.389c0.927,0.927,1.4,2.462,1.422,4.608v8.098
					c0,0.927,0.074,1.553,0.221,1.88c0.147,0.329,0.424,0.491,0.831,0.491h0.271v1.018h-1.323h-3.795h-1.32v-1.018h0.305
					c0.384,0,0.649-0.162,0.797-0.491c0.146-0.328,0.219-0.954,0.219-1.88v-7.962c0-1.424-0.264-2.523-0.795-3.305
					c-0.531-0.778-1.339-1.168-2.423-1.168c-1.219,0-2.213,0.418-2.981,1.254c-0.768,0.836-1.153,1.909-1.153,3.219v7.962
					c0,0.927,0.073,1.553,0.221,1.88c0.146,0.329,0.412,0.491,0.796,0.491h0.306v1.018h-6.438V46.404z"/>
				<path fill="#FFFFFF" stroke="#FFFFFF" stroke-width="0.5" stroke-miterlimit="10" d="M159.134,46.777
					c-1.377-0.79-2.463-1.874-3.253-3.252c-0.791-1.377-1.186-2.915-1.186-4.608s0.395-3.224,1.186-4.592
					c0.79-1.365,1.875-2.438,3.253-3.218c1.378-0.779,2.914-1.169,4.608-1.169c1.694,0,3.23,0.39,4.608,1.169
					c1.377,0.779,2.457,1.853,3.236,3.218c0.78,1.368,1.17,2.898,1.17,4.592s-0.39,3.23-1.17,4.608
					c-0.779,1.378-1.858,2.462-3.236,3.252c-1.378,0.791-2.914,1.186-4.608,1.186C162.048,47.962,160.512,47.568,159.134,46.777z
					 M159.288,43.05c0.44,1.197,1.049,2.13,1.828,2.795c0.78,0.667,1.667,1,2.662,1c0.969,0,1.841-0.333,2.608-1
					c0.769-0.665,1.365-1.598,1.795-2.795c0.429-1.197,0.645-2.575,0.645-4.134c0-1.559-0.216-2.931-0.645-4.116
					c-0.43-1.186-1.027-2.112-1.795-2.779c-0.768-0.665-1.639-1-2.608-1c-0.994,0-1.881,0.334-2.662,1
					c-0.778,0.667-1.388,1.594-1.828,2.779c-0.442,1.186-0.663,2.558-0.663,4.116C158.625,40.476,158.846,41.854,159.288,43.05z"/>
				<path fill="#F48723" stroke="#F48723" stroke-width="0.5" stroke-miterlimit="10" d="M175.805,53.03v-0.895h0.305
					c0.383,0,0.648-0.163,0.796-0.491c0.146-0.328,0.219-1.157,0.219-2.084V27.871c0-0.949-0.073-1.581-0.219-1.898
					c-0.148-0.315-0.414-0.473-0.796-0.473h-0.305v-1.017l4.268-0.779h0.847v26.019c0,0.926,0.073,1.577,0.221,1.904
					c0.146,0.328,0.423,0.491,0.83,0.491h0.271v0.913h-1.322h-3.795H175.805z"/>
				<path fill="#FFFFFF" stroke="#FFFFFF" stroke-width="0.5" stroke-miterlimit="10" d="M188.459,47.32
					c-0.846-0.429-1.514-1.021-2-1.779c-0.486-0.756-0.728-1.609-0.728-2.559c0-1.287,0.327-2.309,0.981-3.065
					c0.655-0.757,1.44-1.31,2.357-1.66c0.914-0.351,2.105-0.696,3.573-1.033c1.041-0.227,1.854-0.436,2.44-0.627
					s1.078-0.464,1.473-0.813s0.594-0.809,0.594-1.373v-0.508c0-0.993-0.236-1.733-0.711-2.219c-0.474-0.486-1.231-0.729-2.27-0.729
					c-0.881,0-1.626,0.288-2.236,0.864c-0.611,0.576-0.916,1.26-0.916,2.049c0,0.792-0.214,1.429-0.643,1.915
					c-0.43,0.486-0.995,0.728-1.695,0.728c-0.609,0-1.152-0.202-1.626-0.609c-0.474-0.407-0.712-0.927-0.712-1.559
					c0-0.904,0.345-1.688,1.035-2.354c0.688-0.667,1.598-1.181,2.728-1.542c1.128-0.361,2.327-0.542,3.591-0.542
					c2.348,0,4.134,0.446,5.353,1.339c1.222,0.892,1.854,2.163,1.898,3.812v8.199c0,0.994,0.045,1.717,0.136,2.169
					c0.089,0.453,0.327,0.677,0.711,0.677c0.543,0,1.027-0.542,1.457-1.626l0.983,0.339c-0.385,1.13-0.876,1.937-1.474,2.423
					c-0.599,0.486-1.304,0.728-2.117,0.728c-1.108,0-1.949-0.332-2.525-0.999c-0.575-0.665-0.896-1.71-0.965-3.133
					c-0.498,1.265-1.226,2.269-2.186,3.014c-0.961,0.746-2.162,1.118-3.608,1.118C190.272,47.962,189.308,47.749,188.459,47.32z
					 M190.424,45.203c0.598,0.598,1.384,0.896,2.355,0.896c1.377,0,2.451-0.58,3.218-1.745c0.769-1.163,1.153-2.591,1.153-4.286
					V36.51c-0.294,0.295-0.667,0.56-1.118,0.797c-0.453,0.237-1.04,0.502-1.762,0.796c-0.995,0.407-1.813,0.792-2.458,1.152
					c-0.642,0.362-1.184,0.842-1.624,1.44c-0.441,0.599-0.663,1.35-0.663,2.253C189.526,43.853,189.827,44.603,190.424,45.203z"/>
				<path fill="#FFFFFF" stroke="#FFFFFF" stroke-width="0.5" stroke-miterlimit="10" d="M217.497,46.218h0.361
					c0.455,0,0.769-0.194,0.944-0.582c0.172-0.388,0.261-1.129,0.261-2.227V22.705c0-0.775-0.094-1.33-0.282-1.665
					c-0.187-0.334-0.495-0.502-0.923-0.502h-0.361v-1.204h10.673c3.557,0.028,6.18,0.756,7.864,2.188
					c1.686,1.43,2.528,3.645,2.528,6.64c0,3.023-0.829,5.264-2.489,6.721c-1.658,1.458-4.239,2.214-7.743,2.268h-4.775v6.259
					c0,1.098,0.086,1.839,0.261,2.227c0.172,0.388,0.487,0.582,0.942,0.582h0.362v1.204h-7.625V46.218z M227.888,35.906
					c2.087,0,3.612-0.635,4.576-1.906c0.963-1.27,1.443-3.216,1.443-5.838c0-2.595-0.48-4.507-1.443-5.738
					c-0.963-1.229-2.489-1.846-4.576-1.846h-4.332v15.328H227.888z"/>
				<path fill="#F48723" stroke="#F48723" stroke-width="0.5" stroke-miterlimit="10" d="M242.726,52.96V52.16l0.306-0.012
					c0.383,0,0.647-0.218,0.795-0.546c0.146-0.327,0.219-0.954,0.219-1.879V34.647c0-0.949-0.073-1.581-0.219-1.897
					c-0.148-0.316-0.413-0.475-0.796-0.475h-0.305v-1.016l4.269-0.779h0.846v19.242c0,0.926,0.073,1.552,0.221,1.879
					c0.146,0.329,0.418,0.558,0.826,0.558h0.275v0.745l-1.324,0.022l-3.78,0.034H242.726z M244.114,23.855
					c0.453-0.44,0.994-0.66,1.627-0.66c0.609,0,1.13,0.22,1.559,0.66c0.428,0.441,0.644,0.966,0.644,1.576
					c0,0.632-0.216,1.168-0.644,1.609c-0.429,0.44-0.949,0.661-1.559,0.661c-0.633,0-1.174-0.22-1.627-0.661
					c-0.451-0.441-0.678-0.977-0.678-1.609C243.436,24.822,243.663,24.296,244.114,23.855z"/>
				<path fill="#FFFFFF" stroke="#FFFFFF" stroke-width="0.5" stroke-miterlimit="10" d="M254.278,32.174L254.11,31.7h-1.898v-1.22
					h1.425c0.881,0,1.602-0.428,2.168-1.287c0.564-0.858,0.927-1.987,1.083-3.389h1.186v4.676h2.439v1.22h-2.439v11.554
					c0,0.994,0.046,1.717,0.136,2.169c0.09,0.453,0.328,0.677,0.712,0.677c0.542,0,1.027-0.542,1.456-1.626l0.984,0.339
					c-0.384,1.13-0.876,1.937-1.475,2.423c-0.6,0.486-1.305,0.728-2.118,0.728c-1.128,0-1.982-0.343-2.558-1.032
					c-0.576-0.688-0.887-1.768-0.933-3.236V32.174z"/>
				<path fill="#FFFFFF" stroke="#FFFFFF" stroke-width="0.5" stroke-miterlimit="10" d="M264.749,46.404h0.305
					c0.385,0,0.649-0.162,0.795-0.491c0.148-0.328,0.221-0.954,0.221-1.88V27.871c0-0.949-0.073-1.581-0.221-1.898
					c-0.146-0.315-0.411-0.473-0.795-0.473h-0.305v-1.017l4.27-0.779h0.847v9.317c0.542-0.949,1.327-1.7,2.355-2.253
					c1.027-0.553,2.163-0.83,3.404-0.83c1.717,0,3.039,0.464,3.966,1.389c0.927,0.927,1.4,2.462,1.423,4.608v8.098
					c0,0.927,0.072,1.553,0.218,1.88c0.148,0.329,0.425,0.491,0.831,0.491h0.272v1.018h-1.321h-3.796h-1.322v-1.018h0.305
					c0.385,0,0.65-0.162,0.795-0.491c0.148-0.328,0.222-0.954,0.222-1.88v-7.962c0-1.424-0.267-2.523-0.795-3.305
					c-0.532-0.778-1.339-1.168-2.423-1.168c-1.221,0-2.215,0.418-2.983,1.254c-0.768,0.836-1.151,1.909-1.151,3.219v7.962
					c0,0.927,0.073,1.553,0.22,1.88c0.148,0.329,0.413,0.491,0.797,0.491h0.305v1.018h-6.438V46.404z"/>
			</g>
		</g>
		<g>
			<path fill="#FFFFFF" d="M107.76,62.82c0.435-0.741,1.025-1.319,1.771-1.736c0.746-0.416,1.562-0.624,2.45-0.624
				c1.015,0,1.918,0.25,2.709,0.748c0.792,0.499,1.366,1.205,1.723,2.12h-1.88c-0.247-0.503-0.589-0.878-1.029-1.125
				c-0.439-0.248-0.947-0.371-1.523-0.371c-0.632,0-1.195,0.143-1.688,0.426c-0.494,0.283-0.88,0.69-1.16,1.221
				c-0.279,0.53-0.419,1.148-0.419,1.852c0,0.705,0.14,1.322,0.419,1.853c0.279,0.531,0.666,0.94,1.16,1.228
				c0.493,0.289,1.056,0.432,1.688,0.432c0.576,0,1.083-0.123,1.523-0.37s0.782-0.622,1.029-1.125h1.88
				c-0.357,0.915-0.931,1.619-1.723,2.113c-0.791,0.494-1.694,0.741-2.709,0.741c-0.897,0-1.715-0.208-2.457-0.624
				c-0.741-0.416-1.329-0.995-1.763-1.735c-0.435-0.741-0.651-1.578-0.651-2.512C107.108,64.398,107.325,63.561,107.76,62.82z"/>
			<path fill="#FFFFFF" d="M120.713,62.758c0.379-0.215,0.83-0.323,1.352-0.323v1.619h-0.398c-0.613,0-1.077,0.156-1.393,0.466
				c-0.315,0.312-0.473,0.851-0.473,1.62v3.979h-1.564v-7.561h1.564v1.098C120.029,63.273,120.333,62.973,120.713,62.758z"/>
			<path fill="#FFFFFF" d="M123.458,64.288c0.316-0.585,0.746-1.04,1.29-1.365c0.543-0.325,1.146-0.487,1.805-0.487
				c0.594,0,1.113,0.117,1.557,0.35c0.443,0.233,0.798,0.523,1.063,0.871v-1.098h1.578v7.561h-1.578v-1.125
				c-0.266,0.356-0.627,0.654-1.084,0.892c-0.457,0.238-0.979,0.356-1.564,0.356c-0.649,0-1.244-0.167-1.784-0.5
				c-0.54-0.333-0.967-0.8-1.283-1.399s-0.473-1.278-0.473-2.038S123.142,64.874,123.458,64.288z M128.85,64.974
				c-0.214-0.385-0.497-0.677-0.844-0.878c-0.348-0.202-0.723-0.302-1.125-0.302c-0.402,0-0.777,0.098-1.125,0.294
				c-0.348,0.197-0.629,0.485-0.844,0.865c-0.214,0.379-0.322,0.83-0.322,1.352s0.108,0.979,0.322,1.372
				c0.215,0.394,0.499,0.693,0.851,0.898c0.353,0.206,0.725,0.309,1.119,0.309c0.403,0,0.777-0.101,1.125-0.302
				c0.347-0.201,0.629-0.496,0.844-0.885c0.215-0.389,0.323-0.844,0.323-1.365S129.065,65.358,128.85,64.974z"/>
			<path fill="#FFFFFF" d="M135.979,63.835h-1.4v6.285h-1.578v-6.285h-0.892v-1.276h0.892v-0.535c0-0.869,0.23-1.502,0.692-1.9
				s1.187-0.597,2.175-0.597v1.304c-0.476,0-0.81,0.089-1.001,0.267c-0.192,0.178-0.289,0.487-0.289,0.926v0.535h1.4V63.835z"/>
			<path fill="#FFFFFF" d="M139.189,63.835v4.185c0,0.284,0.066,0.487,0.199,0.611c0.133,0.124,0.359,0.185,0.679,0.185h0.96v1.304
				h-1.235c-0.705,0-1.244-0.165-1.619-0.494c-0.375-0.329-0.563-0.864-0.563-1.605v-4.185h-0.891v-1.276h0.891v-1.88h1.579v1.88
				h1.838v1.276H139.189z"/>
			<path fill="#FFFFFF" d="M142.55,61.269c-0.192-0.192-0.288-0.43-0.288-0.713c0-0.283,0.096-0.521,0.288-0.713
				c0.192-0.192,0.43-0.288,0.714-0.288c0.275,0,0.507,0.096,0.699,0.288c0.193,0.192,0.289,0.43,0.289,0.713
				c0,0.284-0.096,0.521-0.289,0.713c-0.192,0.192-0.424,0.288-0.699,0.288C142.98,61.557,142.743,61.461,142.55,61.269z
				 M144.033,62.559v7.561h-1.564v-7.561H144.033z"/>
			<path fill="#FFFFFF" d="M151.503,62.806c0.471,0.247,0.839,0.613,1.105,1.098s0.398,1.07,0.398,1.756v4.459h-1.551v-4.227
				c0-0.677-0.169-1.195-0.508-1.557c-0.338-0.362-0.8-0.542-1.386-0.542s-1.049,0.18-1.392,0.542
				c-0.344,0.361-0.515,0.88-0.515,1.557v4.227h-1.564v-7.561h1.564v0.864c0.255-0.311,0.583-0.553,0.981-0.727
				c0.398-0.174,0.821-0.261,1.269-0.261C150.5,62.436,151.032,62.559,151.503,62.806z"/>
			<path fill="#FFFFFF" d="M159.599,62.786c0.453,0.233,0.807,0.523,1.063,0.871v-1.098h1.578v7.684c0,0.695-0.146,1.315-0.439,1.86
				c-0.292,0.544-0.715,0.972-1.27,1.283c-0.553,0.311-1.213,0.467-1.981,0.467c-1.025,0-1.876-0.24-2.553-0.721
				c-0.677-0.48-1.061-1.132-1.152-1.955h1.55c0.119,0.393,0.373,0.711,0.762,0.954c0.389,0.242,0.853,0.364,1.394,0.364
				c0.63,0,1.14-0.192,1.529-0.577c0.389-0.384,0.584-0.942,0.584-1.674v-1.262c-0.266,0.356-0.625,0.656-1.078,0.898
				s-0.968,0.363-1.543,0.363c-0.659,0-1.261-0.167-1.805-0.5c-0.544-0.333-0.974-0.8-1.29-1.399s-0.473-1.278-0.473-2.038
				s0.157-1.432,0.473-2.018c0.316-0.585,0.746-1.04,1.29-1.365c0.543-0.325,1.146-0.487,1.805-0.487
				C158.627,62.436,159.146,62.552,159.599,62.786z M160.34,64.974c-0.215-0.385-0.497-0.677-0.844-0.878
				c-0.348-0.202-0.723-0.302-1.125-0.302c-0.402,0-0.777,0.098-1.125,0.294c-0.348,0.197-0.629,0.485-0.844,0.865
				c-0.214,0.379-0.322,0.83-0.322,1.352s0.108,0.979,0.322,1.372c0.215,0.394,0.499,0.693,0.851,0.898
				c0.353,0.206,0.725,0.309,1.119,0.309c0.403,0,0.777-0.101,1.125-0.302c0.347-0.201,0.629-0.496,0.844-0.885
				s0.323-0.844,0.323-1.365S160.555,65.358,160.34,64.974z"/>
			<path fill="#FFFFFF" d="M174.672,62.559l-4.638,11.114h-1.619l1.537-3.677l-2.978-7.437h1.743l2.127,5.763l2.209-5.763H174.672z"
				/>
			<path fill="#FFFFFF" d="M177.197,69.756c-0.577-0.325-1.03-0.782-1.359-1.372c-0.33-0.591-0.494-1.274-0.494-2.052
				c0-0.769,0.169-1.45,0.507-2.045c0.338-0.594,0.801-1.051,1.387-1.372c0.585-0.32,1.239-0.48,1.962-0.48
				c0.722,0,1.376,0.16,1.962,0.48c0.585,0.321,1.047,0.778,1.386,1.372c0.339,0.595,0.508,1.276,0.508,2.045
				s-0.174,1.45-0.521,2.044c-0.349,0.595-0.821,1.054-1.42,1.379c-0.6,0.324-1.26,0.486-1.983,0.486
				C178.417,70.243,177.772,70.081,177.197,69.756z M180.263,68.597c0.352-0.192,0.638-0.48,0.857-0.865
				c0.219-0.384,0.329-0.851,0.329-1.399s-0.104-1.013-0.314-1.393c-0.211-0.38-0.49-0.666-0.838-0.857
				c-0.347-0.192-0.722-0.288-1.125-0.288c-0.402,0-0.775,0.096-1.118,0.288c-0.343,0.191-0.616,0.478-0.816,0.857
				c-0.202,0.379-0.302,0.844-0.302,1.393c0,0.814,0.208,1.443,0.625,1.887c0.416,0.443,0.94,0.666,1.57,0.666
				C179.534,68.885,179.911,68.789,180.263,68.597z"/>
			<path fill="#FFFFFF" d="M191.453,62.559v7.561h-1.564v-0.892c-0.247,0.311-0.57,0.556-0.968,0.734s-0.821,0.267-1.27,0.267
				c-0.594,0-1.127-0.123-1.598-0.37s-0.842-0.613-1.111-1.098c-0.27-0.485-0.405-1.07-0.405-1.756v-4.446h1.55v4.212
				c0,0.677,0.169,1.196,0.507,1.557c0.339,0.362,0.801,0.542,1.387,0.542c0.585,0,1.049-0.18,1.392-0.542
				c0.343-0.361,0.515-0.88,0.515-1.557v-4.212H191.453z"/>
			<path fill="#FFFFFF" d="M195.988,62.758c0.379-0.215,0.829-0.323,1.351-0.323v1.619h-0.398c-0.613,0-1.078,0.156-1.393,0.466
				c-0.315,0.312-0.473,0.851-0.473,1.62v3.979h-1.564v-7.561h1.564v1.098C195.304,63.273,195.607,62.973,195.988,62.758z"/>
			<path fill="#FFFFFF" d="M202.43,61.269c-0.192-0.192-0.288-0.43-0.288-0.713c0-0.283,0.096-0.521,0.288-0.713
				c0.191-0.192,0.43-0.288,0.713-0.288c0.274,0,0.508,0.096,0.7,0.288s0.288,0.43,0.288,0.713c0,0.284-0.096,0.521-0.288,0.713
				c-0.192,0.192-0.425,0.288-0.7,0.288C202.859,61.557,202.621,61.461,202.43,61.269z M203.911,62.559v7.561h-1.564v-7.561H203.911
				z"/>
			<path fill="#FFFFFF" d="M216.72,62.806c0.471,0.247,0.841,0.613,1.111,1.098s0.405,1.07,0.405,1.756v4.459h-1.551v-4.227
				c0-0.677-0.169-1.195-0.508-1.557c-0.338-0.362-0.8-0.542-1.385-0.542c-0.586,0-1.05,0.18-1.394,0.542
				c-0.343,0.361-0.514,0.88-0.514,1.557v4.227h-1.551v-4.227c0-0.677-0.169-1.195-0.508-1.557c-0.338-0.362-0.8-0.542-1.385-0.542
				s-1.05,0.18-1.393,0.542c-0.344,0.361-0.515,0.88-0.515,1.557v4.227h-1.564v-7.561h1.564v0.864
				c0.256-0.311,0.581-0.553,0.974-0.727c0.394-0.174,0.814-0.261,1.262-0.261c0.604,0,1.144,0.128,1.62,0.384
				c0.475,0.256,0.842,0.627,1.098,1.111c0.229-0.457,0.584-0.821,1.07-1.091c0.485-0.27,1.006-0.405,1.564-0.405
				C215.716,62.436,216.249,62.559,216.72,62.806z"/>
			<path fill="#FFFFFF" d="M220.178,64.288c0.315-0.585,0.745-1.04,1.29-1.365s1.146-0.487,1.805-0.487
				c0.594,0,1.114,0.117,1.557,0.35s0.798,0.523,1.063,0.871v-1.098h1.578v7.561h-1.578v-1.125
				c-0.266,0.356-0.627,0.654-1.084,0.892c-0.457,0.238-0.979,0.356-1.564,0.356c-0.649,0-1.244-0.167-1.784-0.5
				c-0.539-0.333-0.967-0.8-1.282-1.399c-0.316-0.599-0.474-1.278-0.474-2.038S219.862,64.874,220.178,64.288z M225.57,64.974
				c-0.215-0.385-0.497-0.677-0.843-0.878c-0.349-0.202-0.724-0.302-1.126-0.302s-0.777,0.098-1.125,0.294
				c-0.347,0.197-0.629,0.485-0.843,0.865c-0.215,0.379-0.323,0.83-0.323,1.352s0.108,0.979,0.323,1.372
				c0.214,0.394,0.498,0.693,0.851,0.898c0.353,0.206,0.725,0.309,1.118,0.309c0.402,0,0.777-0.101,1.126-0.302
				c0.347-0.201,0.628-0.496,0.843-0.885c0.214-0.389,0.322-0.844,0.322-1.365S225.785,65.358,225.57,64.974z"/>
			<path fill="#FFFFFF" d="M234.132,62.786c0.453,0.233,0.807,0.523,1.063,0.871v-1.098h1.578v7.684c0,0.695-0.146,1.315-0.439,1.86
				c-0.292,0.544-0.716,0.972-1.269,1.283c-0.554,0.311-1.214,0.467-1.982,0.467c-1.025,0-1.876-0.24-2.553-0.721
				c-0.677-0.48-1.062-1.132-1.153-1.955h1.551c0.119,0.393,0.373,0.711,0.762,0.954c0.389,0.242,0.853,0.364,1.393,0.364
				c0.631,0,1.141-0.192,1.529-0.577s0.583-0.942,0.583-1.674v-1.262c-0.265,0.356-0.625,0.656-1.078,0.898
				s-0.967,0.363-1.543,0.363c-0.659,0-1.261-0.167-1.804-0.5c-0.544-0.333-0.975-0.8-1.291-1.399
				c-0.315-0.599-0.473-1.278-0.473-2.038s0.157-1.432,0.473-2.018c0.316-0.585,0.746-1.04,1.291-1.365
				c0.543-0.325,1.145-0.487,1.804-0.487C233.16,62.436,233.679,62.552,234.132,62.786z M234.874,64.974
				c-0.215-0.385-0.497-0.677-0.844-0.878c-0.348-0.202-0.722-0.302-1.125-0.302s-0.778,0.098-1.125,0.294
				c-0.348,0.197-0.629,0.485-0.844,0.865c-0.215,0.379-0.322,0.83-0.322,1.352s0.107,0.979,0.322,1.372
				c0.215,0.394,0.499,0.693,0.851,0.898c0.352,0.206,0.725,0.309,1.119,0.309c0.403,0,0.777-0.101,1.125-0.302
				c0.348-0.201,0.629-0.496,0.844-0.885c0.215-0.389,0.322-0.844,0.322-1.365S235.088,65.358,234.874,64.974z"/>
			<path fill="#FFFFFF" d="M238.914,61.269c-0.192-0.192-0.288-0.43-0.288-0.713c0-0.283,0.096-0.521,0.288-0.713
				c0.192-0.192,0.43-0.288,0.713-0.288c0.275,0,0.508,0.096,0.7,0.288c0.192,0.192,0.289,0.43,0.289,0.713
				c0,0.284-0.096,0.521-0.289,0.713c-0.192,0.192-0.425,0.288-0.7,0.288C239.344,61.557,239.106,61.461,238.914,61.269z
				 M240.396,62.559v7.561h-1.564v-7.561H240.396z"/>
			<path fill="#FFFFFF" d="M247.867,62.806c0.471,0.247,0.839,0.613,1.105,1.098c0.265,0.485,0.398,1.07,0.398,1.756v4.459h-1.551
				v-4.227c0-0.677-0.169-1.195-0.508-1.557c-0.339-0.362-0.801-0.542-1.386-0.542c-0.585,0-1.049,0.18-1.392,0.542
				c-0.343,0.361-0.515,0.88-0.515,1.557v4.227h-1.564v-7.561h1.564v0.864c0.255-0.311,0.583-0.553,0.981-0.727
				c0.398-0.174,0.821-0.261,1.269-0.261C246.863,62.436,247.396,62.559,247.867,62.806z"/>
			<path fill="#FFFFFF" d="M251.311,64.288c0.316-0.585,0.745-1.04,1.29-1.365c0.544-0.325,1.146-0.487,1.805-0.487
				c0.594,0,1.113,0.117,1.558,0.35c0.443,0.233,0.797,0.523,1.063,0.871v-1.098h1.578v7.561h-1.578v-1.125
				c-0.266,0.356-0.627,0.654-1.085,0.892c-0.457,0.238-0.979,0.356-1.564,0.356c-0.649,0-1.244-0.167-1.784-0.5
				c-0.54-0.333-0.967-0.8-1.283-1.399s-0.474-1.278-0.474-2.038S250.995,64.874,251.311,64.288z M256.703,64.974
				c-0.214-0.385-0.497-0.677-0.843-0.878c-0.349-0.202-0.723-0.302-1.125-0.302s-0.777,0.098-1.125,0.294
				c-0.348,0.197-0.629,0.485-0.844,0.865c-0.214,0.379-0.322,0.83-0.322,1.352s0.108,0.979,0.322,1.372
				c0.215,0.394,0.499,0.693,0.851,0.898c0.353,0.206,0.725,0.309,1.119,0.309c0.402,0,0.777-0.101,1.125-0.302
				c0.347-0.201,0.629-0.496,0.843-0.885c0.215-0.389,0.323-0.844,0.323-1.365S256.918,65.358,256.703,64.974z"/>
			<path fill="#FFFFFF" d="M262.487,63.835v4.185c0,0.284,0.066,0.487,0.199,0.611c0.132,0.124,0.359,0.185,0.679,0.185h0.96v1.304
				h-1.235c-0.705,0-1.244-0.165-1.619-0.494c-0.375-0.329-0.563-0.864-0.563-1.605v-4.185h-0.892v-1.276h0.892v-1.88h1.578v1.88
				h1.838v1.276H262.487z"/>
			<path fill="#FFFFFF" d="M265.849,61.269c-0.193-0.192-0.289-0.43-0.289-0.713c0-0.283,0.096-0.521,0.289-0.713
				c0.192-0.192,0.429-0.288,0.713-0.288c0.274,0,0.508,0.096,0.7,0.288c0.192,0.192,0.288,0.43,0.288,0.713
				c0,0.284-0.096,0.521-0.288,0.713c-0.192,0.192-0.426,0.288-0.7,0.288C266.278,61.557,266.041,61.461,265.849,61.269z
				 M267.33,62.559v7.561h-1.564v-7.561H267.33z"/>
			<path fill="#FFFFFF" d="M270.733,69.756c-0.577-0.325-1.029-0.782-1.359-1.372c-0.329-0.591-0.494-1.274-0.494-2.052
				c0-0.769,0.168-1.45,0.507-2.045c0.338-0.594,0.801-1.051,1.386-1.372c0.585-0.32,1.239-0.48,1.962-0.48s1.377,0.16,1.962,0.48
				c0.585,0.321,1.047,0.778,1.386,1.372c0.338,0.595,0.508,1.276,0.508,2.045s-0.174,1.45-0.521,2.044
				c-0.348,0.595-0.821,1.054-1.42,1.379c-0.599,0.324-1.26,0.486-1.983,0.486C271.955,70.243,271.309,70.081,270.733,69.756z
				 M273.8,68.597c0.352-0.192,0.637-0.48,0.857-0.865c0.219-0.384,0.329-0.851,0.329-1.399s-0.104-1.013-0.314-1.393
				c-0.211-0.38-0.49-0.666-0.838-0.857c-0.347-0.192-0.722-0.288-1.125-0.288s-0.775,0.096-1.118,0.288
				c-0.344,0.191-0.616,0.478-0.817,0.857c-0.202,0.379-0.302,0.844-0.302,1.393c0,0.814,0.208,1.443,0.624,1.887
				c0.416,0.443,0.94,0.666,1.571,0.666C273.071,68.885,273.447,68.789,273.8,68.597z"/>
			<path fill="#FFFFFF" d="M283.557,62.806c0.47,0.247,0.838,0.613,1.104,1.098c0.265,0.485,0.397,1.07,0.397,1.756v4.459h-1.551
				v-4.227c0-0.677-0.169-1.195-0.506-1.557c-0.338-0.362-0.801-0.542-1.387-0.542s-1.049,0.18-1.392,0.542
				c-0.344,0.361-0.515,0.88-0.515,1.557v4.227h-1.565v-7.561h1.565v0.864c0.255-0.311,0.583-0.553,0.98-0.727
				c0.399-0.174,0.821-0.261,1.27-0.261C282.552,62.436,283.084,62.559,283.557,62.806z"/>
		</g>
	</g>
</g>
</svg>
